# xmcd CD database file
#
# Track frame offsets:
#	150
#	13316
#	27370
#	41562
#	60797
#	74559
#	91835
#	113386
#	128315
#	141269
#	155446
#	170167
#
# Disc length: 2480 seconds
#
# Revision: 0
# Processed by: cddbd v1.5.1PL2 Copyright (c) Steve Scherf et al.
# Submitted via: CDex 1.50
#
DISCID=9609ae0c
DTITLE=Kerry Summerfield - Making Plans
DYEAR=2006
DGENRE=Country
TTITLE0=Every Little Thing
TTITLE1=I Saw A Man
TTITLE2=Saturday Dance
TTITLE3=Making Plans
TTITLE4=Flowers On The Wall
TTITLE5=Crazy
TTITLE6=The Farmers Daughter
TTITLE7=Darlin' Billy
TTITLE8=Beautiful Circle
TTITLE9=Old Flames
TTITLE10=Didn't We Shine
TTITLE11=Back Out Back
EXTD=YEAR: 2006
EXTT0=
EXTT1=
EXTT2=
EXTT3=
EXTT4=
EXTT5=
EXTT6=
EXTT7=
EXTT8=
EXTT9=
EXTT10=
EXTT11=
PLAYORDER=
